<svg version="1.1" xmlns="http://www.w3.org/2000/svg" viewBox="0 0 1814 837.4" width="3628" height="1674.8" role="img"><title>Event delivery and recovery</title><!-- svg-source:excalidraw --><metadata/><defs><style class="style-fonts">
      </style></defs><rect x="0" y="0" width="1814" height="837.4" fill="#ffffff"/><g transform="translate(32 32) rotate(0 242.84765625 19.549999999999997)"><text x="0" y="28.730664062499997" font-family="Helvetica, Segoe UI Emoji" font-size="34px" fill="#0f172a" text-anchor="start" style="white-space: pre;" direction="ltr" dominant-baseline="alphabetic">04 / Event delivery and recovery</text></g><g transform="translate(32 86) rotate(0 356.501953125 10.350000000000001)"><text x="0" y="15.2103515625" font-family="Helvetica, Segoe UI Emoji" font-size="18px" fill="#334155" text-anchor="start" style="white-space: pre;" direction="ltr" dominant-baseline="alphabetic">At-least-once delivery • transactional deduplication • no global cross-database transaction</text></g><g stroke-linecap="round" transform="translate(32 174) rotate(0 150 85)"><path d="M32 0 C105.98 0, 179.95 0, 268 0 C289.33 0, 300 10.67, 300 32 C300 54.57, 300 77.14, 300 138 C300 159.33, 289.33 170, 268 170 C181.73 170, 95.47 170, 32 170 C10.67 170, 0 159.33, 0 138 C0 102.41, 0 66.82, 0 32 C0 10.67, 10.67 0, 32 0" stroke="none" stroke-width="0" fill="#eff6ff"/><path d="M32 0 C123.56 0, 215.12 0, 268 0 M32 0 C114.61 0, 197.22 0, 268 0 M268 0 C289.33 0, 300 10.67, 300 32 M268 0 C289.33 0, 300 10.67, 300 32 M300 32 C300 60.93, 300 89.86, 300 138 M300 32 C300 60.01, 300 88.03, 300 138 M300 138 C300 159.33, 289.33 170, 268 170 M300 138 C300 159.33, 289.33 170, 268 170 M268 170 C180.05 170, 92.09 170, 32 170 M268 170 C198.76 170, 129.52 170, 32 170 M32 170 C10.67 170, 0 159.33, 0 138 M32 170 C10.67 170, 0 159.33, 0 138 M0 138 C0 107.7, 0 77.41, 0 32 M0 138 C0 111.13, 0 84.25, 0 32 M0 32 C0 10.67, 10.67 0, 32 0 M0 32 C0 10.67, 10.67 0, 32 0" stroke="#475569" stroke-width="1.5" fill="none"/></g><g transform="translate(50 186) rotate(0 101.49755859375 12.650000000000006)"><text x="0" y="18.5904296875" font-family="Helvetica, Segoe UI Emoji" font-size="22px" fill="#0f172a" text-anchor="start" style="white-space: pre;" direction="ltr" dominant-baseline="alphabetic">Producer transaction</text></g><g transform="translate(50 217) rotate(0 110.52685546875 8.049999999999997)"><text x="0" y="11.830273437499999" font-family="Helvetica, Segoe UI Emoji" font-size="14px" fill="#334155" text-anchor="start" style="white-space: pre;" direction="ltr" dominant-baseline="alphabetic">Stores changes and event together.</text></g><g transform="translate(50 241) rotate(0 65.361328125 6.900000000000006)"><text x="0" y="10.140234374999999" font-family="Helvetica, Segoe UI Emoji" font-size="12px" fill="#475569" text-anchor="start" style="white-space: pre;" direction="ltr" dominant-baseline="alphabetic">Ordering / fulfillment · pg</text></g><g transform="translate(50 275) rotate(0 96.87890625 24.150000000000006)"><text x="0" y="11.830273437499999" font-family="Helvetica, Segoe UI Emoji" font-size="14px" fill="#334155" text-anchor="start" style="white-space: pre;" direction="ltr" dominant-baseline="alphabetic">Business change + outbox row</text><text x="0" y="27.9302734375" font-family="Helvetica, Segoe UI Emoji" font-size="14px" fill="#334155" text-anchor="start" style="white-space: pre;" direction="ltr" dominant-baseline="alphabetic">Event UUID remains stable</text><text x="0" y="44.03027343749999" font-family="Helvetica, Segoe UI Emoji" font-size="14px" fill="#334155" text-anchor="start" style="white-space: pre;" direction="ltr" dominant-baseline="alphabetic">occurredAt / correlation / cause</text></g><g stroke-linecap="round" transform="translate(492 174) rotate(0 150 85)"><path d="M32 0 C106.57 0, 181.15 0, 268 0 C289.33 0, 300 10.67, 300 32 C300 71.15, 300 110.31, 300 138 C300 159.33, 289.33 170, 268 170 C216.65 170, 165.31 170, 32 170 C10.67 170, 0 159.33, 0 138 C0 115.51, 0 93.01, 0 32 C0 10.67, 10.67 0, 32 0" stroke="none" stroke-width="0" fill="#eff6ff"/><path d="M32 0 C99.07 0, 166.15 0, 268 0 M32 0 C84.04 0, 136.07 0, 268 0 M268 0 C289.33 0, 300 10.67, 300 32 M268 0 C289.33 0, 300 10.67, 300 32 M300 32 C300 56.61, 300 81.23, 300 138 M300 32 C300 62.39, 300 92.78, 300 138 M300 138 C300 159.33, 289.33 170, 268 170 M300 138 C300 159.33, 289.33 170, 268 170 M268 170 C203.58 170, 139.17 170, 32 170 M268 170 C182.65 170, 97.29 170, 32 170 M32 170 C10.67 170, 0 159.33, 0 138 M32 170 C10.67 170, 0 159.33, 0 138 M0 138 C0 103.99, 0 69.97, 0 32 M0 138 C0 107.96, 0 77.91, 0 32 M0 32 C0 10.67, 10.67 0, 32 0 M0 32 C0 10.67, 10.67 0, 32 0" stroke="#475569" stroke-width="1.5" fill="none"/></g><g transform="translate(510 186) rotate(0 98.43603515625 12.650000000000006)"><text x="0" y="18.5904296875" font-family="Helvetica, Segoe UI Emoji" font-size="22px" fill="#0f172a" text-anchor="start" style="white-space: pre;" direction="ltr" dominant-baseline="alphabetic">Confirmed publisher</text></g><g transform="translate(510 217) rotate(0 110.0927734375 8.049999999999997)"><text x="0" y="11.830273437499999" font-family="Helvetica, Segoe UI Emoji" font-size="14px" fill="#334155" text-anchor="start" style="white-space: pre;" direction="ltr" dominant-baseline="alphabetic">Confirms delivery before marking it.</text></g><g transform="translate(510 241) rotate(0 68.3671875 6.900000000000006)"><text x="0" y="10.140234374999999" font-family="Helvetica, Segoe UI Emoji" font-size="12px" fill="#475569" text-anchor="start" style="white-space: pre;" direction="ltr" dominant-baseline="alphabetic">amqplib · confirm channel</text></g><g transform="translate(510 275) rotate(0 102.52197265625 24.150000000000006)"><text x="0" y="11.830273437499999" font-family="Helvetica, Segoe UI Emoji" font-size="14px" fill="#334155" text-anchor="start" style="white-space: pre;" direction="ltr" dominant-baseline="alphabetic">Pending rows ordered, batch 20</text><text x="0" y="27.9302734375" font-family="Helvetica, Segoe UI Emoji" font-size="14px" fill="#334155" text-anchor="start" style="white-space: pre;" direction="ltr" dominant-baseline="alphabetic">Persistent + mandatory message</text><text x="0" y="44.03027343749999" font-family="Helvetica, Segoe UI Emoji" font-size="14px" fill="#334155" text-anchor="start" style="white-space: pre;" direction="ltr" dominant-baseline="alphabetic">Mark published only on confirm</text></g><g stroke-linecap="round" transform="translate(952 174) rotate(0 150 85)"><path d="M32 0 C101.05 0, 170.1 0, 268 0 C289.33 0, 300 10.67, 300 32 C300 59.43, 300 86.86, 300 138 C300 159.33, 289.33 170, 268 170 C215.02 170, 162.04 170, 32 170 C10.67 170, 0 159.33, 0 138 C0 100.3, 0 62.61, 0 32 C0 10.67, 10.67 0, 32 0" stroke="none" stroke-width="0" fill="#eff6ff"/><path d="M32 0 C89.62 0, 147.25 0, 268 0 M32 0 C118.39 0, 204.79 0, 268 0 M268 0 C289.33 0, 300 10.67, 300 32 M268 0 C289.33 0, 300 10.67, 300 32 M300 32 C300 56.28, 300 80.57, 300 138 M300 32 C300 61.63, 300 91.26, 300 138 M300 138 C300 159.33, 289.33 170, 268 170 M300 138 C300 159.33, 289.33 170, 268 170 M268 170 C181.48 170, 94.95 170, 32 170 M268 170 C186 170, 103.99 170, 32 170 M32 170 C10.67 170, 0 159.33, 0 138 M32 170 C10.67 170, 0 159.33, 0 138 M0 138 C0 113.52, 0 89.03, 0 32 M0 138 C0 111.38, 0 84.77, 0 32 M0 32 C0 10.67, 10.67 0, 32 0 M0 32 C0 10.67, 10.67 0, 32 0" stroke="#475569" stroke-width="1.5" fill="none"/></g><g transform="translate(970 186) rotate(0 92.83935546875 12.650000000000006)"><text x="0" y="18.5904296875" font-family="Helvetica, Segoe UI Emoji" font-size="22px" fill="#0f172a" text-anchor="start" style="white-space: pre;" direction="ltr" dominant-baseline="alphabetic">Transport + routing</text></g><g transform="translate(970 217) rotate(0 114.39599609375 8.049999999999997)"><text x="0" y="11.830273437499999" font-family="Helvetica, Segoe UI Emoji" font-size="14px" fill="#334155" text-anchor="start" style="white-space: pre;" direction="ltr" dominant-baseline="alphabetic">Routes events to the owning service.</text></g><g transform="translate(970 241) rotate(0 57.3515625 6.900000000000006)"><text x="0" y="10.140234374999999" font-family="Helvetica, Segoe UI Emoji" font-size="12px" fill="#475569" text-anchor="start" style="white-space: pre;" direction="ltr" dominant-baseline="alphabetic">Toxiproxy · RabbitMQ</text></g><g transform="translate(970 275) rotate(0 86.77880859375 24.150000000000006)"><text x="0" y="11.830273437499999" font-family="Helvetica, Segoe UI Emoji" font-size="14px" fill="#334155" text-anchor="start" style="white-space: pre;" direction="ltr" dominant-baseline="alphabetic">lab.accepted → fulfillment</text><text x="0" y="27.9302734375" font-family="Helvetica, Segoe UI Emoji" font-size="14px" fill="#334155" text-anchor="start" style="white-space: pre;" direction="ltr" dominant-baseline="alphabetic">lab.outcomes → ordering</text><text x="0" y="44.03027343749999" font-family="Helvetica, Segoe UI Emoji" font-size="14px" fill="#334155" text-anchor="start" style="white-space: pre;" direction="ltr" dominant-baseline="alphabetic">lab.quarantine → inspection</text></g><g stroke-linecap="round" transform="translate(1412 174) rotate(0 150 85)"><path d="M32 0 C126.19 0, 220.38 0, 268 0 C289.33 0, 300 10.67, 300 32 C300 66.16, 300 100.33, 300 138 C300 159.33, 289.33 170, 268 170 C198.43 170, 128.86 170, 32 170 C10.67 170, 0 159.33, 0 138 C0 112.76, 0 87.51, 0 32 C0 10.67, 10.67 0, 32 0" stroke="none" stroke-width="0" fill="#eff6ff"/><path d="M32 0 C118.81 0, 205.61 0, 268 0 M32 0 C96.41 0, 160.82 0, 268 0 M268 0 C289.33 0, 300 10.67, 300 32 M268 0 C289.33 0, 300 10.67, 300 32 M300 32 C300 64.25, 300 96.5, 300 138 M300 32 C300 71.5, 300 111.01, 300 138 M300 138 C300 159.33, 289.33 170, 268 170 M300 138 C300 159.33, 289.33 170, 268 170 M268 170 C183.24 170, 98.48 170, 32 170 M268 170 C200.55 170, 133.09 170, 32 170 M32 170 C10.67 170, 0 159.33, 0 138 M32 170 C10.67 170, 0 159.33, 0 138 M0 138 C0 96.31, 0 54.63, 0 32 M0 138 C0 104.77, 0 71.55, 0 32 M0 32 C0 10.67, 10.67 0, 32 0 M0 32 C0 10.67, 10.67 0, 32 0" stroke="#475569" stroke-width="1.5" fill="none"/></g><g transform="translate(1430 186) rotate(0 107.6044921875 12.650000000000006)"><text x="0" y="18.5904296875" font-family="Helvetica, Segoe UI Emoji" font-size="22px" fill="#0f172a" text-anchor="start" style="white-space: pre;" direction="ltr" dominant-baseline="alphabetic">Consumer transaction</text></g><g transform="translate(1430 217) rotate(0 97.16259765625 8.049999999999997)"><text x="0" y="11.830273437499999" font-family="Helvetica, Segoe UI Emoji" font-size="14px" fill="#334155" text-anchor="start" style="white-space: pre;" direction="ltr" dominant-baseline="alphabetic">Applies each event effect once.</text></g><g transform="translate(1430 241) rotate(0 74.373046875 6.900000000000006)"><text x="0" y="10.140234374999999" font-family="Helvetica, Segoe UI Emoji" font-size="12px" fill="#475569" text-anchor="start" style="white-space: pre;" direction="ltr" dominant-baseline="alphabetic">TypeBox · Ajv · pg · amqplib</text></g><g transform="translate(1430 269) rotate(0 101.8212890625 32.19999999999999)"><text x="0" y="11.830273437499999" font-family="Helvetica, Segoe UI Emoji" font-size="14px" fill="#334155" text-anchor="start" style="white-space: pre;" direction="ltr" dominant-baseline="alphabetic">Validate envelope / event owner</text><text x="0" y="27.9302734375" font-family="Helvetica, Segoe UI Emoji" font-size="14px" fill="#334155" text-anchor="start" style="white-space: pre;" direction="ltr" dominant-baseline="alphabetic">Inbox ID + domain effects</text><text x="0" y="44.03027343749999" font-family="Helvetica, Segoe UI Emoji" font-size="14px" fill="#334155" text-anchor="start" style="white-space: pre;" direction="ltr" dominant-baseline="alphabetic">Commit together, then ack</text><text x="0" y="60.130273437499994" font-family="Helvetica, Segoe UI Emoji" font-size="14px" fill="#334155" text-anchor="start" style="white-space: pre;" direction="ltr" dominant-baseline="alphabetic">Duplicate effects are suppressed</text></g><g stroke-linecap="round"><g transform="translate(332.5 254) rotate(0 79.5 0)"><path d="M0 0 C61.54 0, 123.09 0, 159 0 M0 0 C36.92 0, 73.84 0, 159 0" stroke="#2563eb" stroke-width="2" fill="none"/></g><g transform="translate(332.5 254) rotate(0 79.5 0)"><path d="M135.51 8.55 C144.6 5.24, 153.69 1.93, 159 0 M135.51 8.55 C140.96 6.57, 146.42 4.58, 159 0" stroke="#2563eb" stroke-width="2" fill="none"/></g><g transform="translate(332.5 254) rotate(0 79.5 0)"><path d="M135.51 -8.55 C144.6 -5.24, 153.69 -1.93, 159 0 M135.51 -8.55 C140.96 -6.57, 146.42 -4.58, 159 0" stroke="#2563eb" stroke-width="2" fill="none"/></g></g><mask/><g transform="translate(342 218) rotate(0 49.3515625 9.200000000000003)"><text x="0" y="13.5203125" font-family="Helvetica, Segoe UI Emoji" font-size="16px" fill="#2563eb" text-anchor="start" style="white-space: pre;" direction="ltr" dominant-baseline="alphabetic">Outbox JSON</text></g><g stroke-linecap="round"><g transform="translate(792.5 254) rotate(0 79.5 0)"><path d="M0 0 C43.4 0, 86.79 0, 159 0 M0 0 C42.02 0, 84.04 0, 159 0" stroke="#2563eb" stroke-width="2" fill="none"/></g><g transform="translate(792.5 254) rotate(0 79.5 0)"><path d="M135.51 8.55 C141.92 6.22, 148.33 3.88, 159 0 M135.51 8.55 C141.72 6.29, 147.92 4.03, 159 0" stroke="#2563eb" stroke-width="2" fill="none"/></g><g transform="translate(792.5 254) rotate(0 79.5 0)"><path d="M135.51 -8.55 C141.92 -6.22, 148.33 -3.88, 159 0 M135.51 -8.55 C141.72 -6.29, 147.92 -4.03, 159 0" stroke="#2563eb" stroke-width="2" fill="none"/></g></g><mask/><g transform="translate(807 218) rotate(0 45.3515625 9.200000000000003)"><text x="0" y="13.5203125" font-family="Helvetica, Segoe UI Emoji" font-size="16px" fill="#2563eb" text-anchor="start" style="white-space: pre;" direction="ltr" dominant-baseline="alphabetic">AMQP event</text></g><g stroke-linecap="round"><g transform="translate(1252.5 254) rotate(0 79.5 0)"><path d="M0 0 C46.76 0, 93.53 0, 159 0 M0 0 C35.18 0, 70.36 0, 159 0" stroke="#2563eb" stroke-width="2" fill="none"/></g><g transform="translate(1252.5 254) rotate(0 79.5 0)"><path d="M135.51 8.55 C142.42 6.04, 149.33 3.52, 159 0 M135.51 8.55 C140.71 6.66, 145.9 4.77, 159 0" stroke="#2563eb" stroke-width="2" fill="none"/></g><g transform="translate(1252.5 254) rotate(0 79.5 0)"><path d="M135.51 -8.55 C142.42 -6.04, 149.33 -3.52, 159 0 M135.51 -8.55 C140.71 -6.66, 145.9 -4.77, 159 0" stroke="#2563eb" stroke-width="2" fill="none"/></g></g><mask/><g transform="translate(1285 218) rotate(0 28.89453125 9.200000000000003)"><text x="0" y="13.5203125" font-family="Helvetica, Segoe UI Emoji" font-size="16px" fill="#2563eb" text-anchor="start" style="white-space: pre;" direction="ltr" dominant-baseline="alphabetic">Delivery</text></g><g stroke-linecap="round" transform="translate(32 514) rotate(0 170 90)"><path d="M32 0 C120.95 0, 209.9 0, 308 0 C329.33 0, 340 10.67, 340 32 C340 66.2, 340 100.39, 340 148 C340 169.33, 329.33 180, 308 180 C242.27 180, 176.55 180, 32 180 C10.67 180, 0 169.33, 0 148 C0 111.14, 0 74.28, 0 32 C0 10.67, 10.67 0, 32 0" stroke="none" stroke-width="0" fill="#fff7ed"/><path d="M32 0 C127.21 0, 222.42 0, 308 0 M32 0 C139.13 0, 246.26 0, 308 0 M308 0 C329.33 0, 340 10.67, 340 32 M308 0 C329.33 0, 340 10.67, 340 32 M340 32 C340 71.78, 340 111.56, 340 148 M340 32 C340 71.55, 340 111.09, 340 148 M340 148 C340 169.33, 329.33 180, 308 180 M340 148 C340 169.33, 329.33 180, 308 180 M308 180 C236.97 180, 165.94 180, 32 180 M308 180 C231.89 180, 155.78 180, 32 180 M32 180 C10.67 180, 0 169.33, 0 148 M32 180 C10.67 180, 0 169.33, 0 148 M0 148 C0 107.59, 0 67.18, 0 32 M0 148 C0 123.3, 0 98.6, 0 32 M0 32 C0 10.67, 10.67 0, 32 0 M0 32 C0 10.67, 10.67 0, 32 0" stroke="#475569" stroke-width="1.5" fill="none"/></g><g transform="translate(50 526) rotate(0 114.93603515625 12.649999999999977)"><text x="0" y="18.5904296875" font-family="Helvetica, Segoe UI Emoji" font-size="22px" fill="#0f172a" text-anchor="start" style="white-space: pre;" direction="ltr" dominant-baseline="alphabetic">Response / confirm lost</text></g><g transform="translate(50 557) rotate(0 110.87890625 8.050000000000011)"><text x="0" y="11.830273437499999" font-family="Helvetica, Segoe UI Emoji" font-size="14px" fill="#334155" text-anchor="start" style="white-space: pre;" direction="ltr" dominant-baseline="alphabetic">Recovers uncertain delivery results.</text></g><g transform="translate(50 581) rotate(0 57.03515625 6.899999999999977)"><text x="0" y="10.140234374999999" font-family="Helvetica, Segoe UI Emoji" font-size="12px" fill="#475569" text-anchor="start" style="white-space: pre;" direction="ltr" dominant-baseline="alphabetic">Typed fetch · amqplib</text></g><g transform="translate(50 609) rotate(0 94.53759765625 32.19999999999999)"><text x="0" y="11.830273437499999" font-family="Helvetica, Segoe UI Emoji" font-size="14px" fill="#334155" text-anchor="start" style="white-space: pre;" direction="ltr" dominant-baseline="alphabetic">Commit can precede lost reply</text><text x="0" y="27.9302734375" font-family="Helvetica, Segoe UI Emoji" font-size="14px" fill="#334155" text-anchor="start" style="white-space: pre;" direction="ltr" dominant-baseline="alphabetic">Checkout: original key replay</text><text x="0" y="44.03027343749999" font-family="Helvetica, Segoe UI Emoji" font-size="14px" fill="#334155" text-anchor="start" style="white-space: pre;" direction="ltr" dominant-baseline="alphabetic">Publish: original event ID retry</text><text x="0" y="60.130273437499994" font-family="Helvetica, Segoe UI Emoji" font-size="14px" fill="#334155" text-anchor="start" style="white-space: pre;" direction="ltr" dominant-baseline="alphabetic">No promise of one delivery</text></g><g stroke-linecap="round" transform="translate(492 514) rotate(0 170 90)"><path d="M32 0 C108.9 0, 185.79 0, 308 0 C329.33 0, 340 10.67, 340 32 C340 76.32, 340 120.63, 340 148 C340 169.33, 329.33 180, 308 180 C248.76 180, 189.52 180, 32 180 C10.67 180, 0 169.33, 0 148 C0 105.11, 0 62.22, 0 32 C0 10.67, 10.67 0, 32 0" stroke="none" stroke-width="0" fill="#fff7ed"/><path d="M32 0 C93.06 0, 154.13 0, 308 0 M32 0 C103.28 0, 174.57 0, 308 0 M308 0 C329.33 0, 340 10.67, 340 32 M308 0 C329.33 0, 340 10.67, 340 32 M340 32 C340 57.75, 340 83.5, 340 148 M340 32 C340 73.63, 340 115.26, 340 148 M340 148 C340 169.33, 329.33 180, 308 180 M340 148 C340 169.33, 329.33 180, 308 180 M308 180 C252.34 180, 196.68 180, 32 180 M308 180 C243.54 180, 179.08 180, 32 180 M32 180 C10.67 180, 0 169.33, 0 148 M32 180 C10.67 180, 0 169.33, 0 148 M0 148 C0 123.64, 0 99.28, 0 32 M0 148 C0 105.15, 0 62.3, 0 32 M0 32 C0 10.67, 10.67 0, 32 0 M0 32 C0 10.67, 10.67 0, 32 0" stroke="#475569" stroke-width="1.5" fill="none"/></g><g transform="translate(510 526) rotate(0 116.78369140625 12.649999999999977)"><text x="0" y="18.5904296875" font-family="Helvetica, Segoe UI Emoji" font-size="22px" fill="#0f172a" text-anchor="start" style="white-space: pre;" direction="ltr" dominant-baseline="alphabetic">Broker / network outage</text></g><g transform="translate(510 557) rotate(0 115.5478515625 8.050000000000011)"><text x="0" y="11.830273437499999" font-family="Helvetica, Segoe UI Emoji" font-size="14px" fill="#334155" text-anchor="start" style="white-space: pre;" direction="ltr" dominant-baseline="alphabetic">Retains work while transport is down.</text></g><g transform="translate(510 581) rotate(0 78.3779296875 6.899999999999977)"><text x="0" y="10.140234374999999" font-family="Helvetica, Segoe UI Emoji" font-size="12px" fill="#475569" text-anchor="start" style="white-space: pre;" direction="ltr" dominant-baseline="alphabetic">PostgreSQL outbox · amqplib</text></g><g transform="translate(510 609) rotate(0 97.25830078125 32.19999999999999)"><text x="0" y="11.830273437499999" font-family="Helvetica, Segoe UI Emoji" font-size="14px" fill="#334155" text-anchor="start" style="white-space: pre;" direction="ltr" dominant-baseline="alphabetic">Outbox remains unpublished</text><text x="0" y="27.9302734375" font-family="Helvetica, Segoe UI Emoji" font-size="14px" fill="#334155" text-anchor="start" style="white-space: pre;" direction="ltr" dominant-baseline="alphabetic">Publisher reconnects later</text><text x="0" y="44.03027343749999" font-family="Helvetica, Segoe UI Emoji" font-size="14px" fill="#334155" text-anchor="start" style="white-space: pre;" direction="ltr" dominant-baseline="alphabetic">No in-memory-only work queue</text><text x="0" y="60.130273437499994" font-family="Helvetica, Segoe UI Emoji" font-size="14px" fill="#334155" text-anchor="start" style="white-space: pre;" direction="ltr" dominant-baseline="alphabetic">Oldest pending age observable</text></g><g stroke-linecap="round" transform="translate(952 514) rotate(0 170 90)"><path d="M32 0 C130.37 0, 228.74 0, 308 0 C329.33 0, 340 10.67, 340 32 C340 59.75, 340 87.49, 340 148 C340 169.33, 329.33 180, 308 180 C216.59 180, 125.18 180, 32 180 C10.67 180, 0 169.33, 0 148 C0 123.77, 0 99.53, 0 32 C0 10.67, 10.67 0, 32 0" stroke="none" stroke-width="0" fill="#fff7ed"/><path d="M32 0 C119.84 0, 207.67 0, 308 0 M32 0 C123.87 0, 215.74 0, 308 0 M308 0 C329.33 0, 340 10.67, 340 32 M308 0 C329.33 0, 340 10.67, 340 32 M340 32 C340 68.7, 340 105.4, 340 148 M340 32 C340 56.49, 340 80.98, 340 148 M340 148 C340 169.33, 329.33 180, 308 180 M340 148 C340 169.33, 329.33 180, 308 180 M308 180 C210.26 180, 112.51 180, 32 180 M308 180 C222.42 180, 136.84 180, 32 180 M32 180 C10.67 180, 0 169.33, 0 148 M32 180 C10.67 180, 0 169.33, 0 148 M0 148 C0 122.07, 0 96.15, 0 32 M0 148 C0 117.98, 0 87.96, 0 32 M0 32 C0 10.67, 10.67 0, 32 0 M0 32 C0 10.67, 10.67 0, 32 0" stroke="#475569" stroke-width="1.5" fill="none"/></g><g transform="translate(970 526) rotate(0 129.013671875 12.649999999999977)"><text x="0" y="18.5904296875" font-family="Helvetica, Segoe UI Emoji" font-size="22px" fill="#0f172a" text-anchor="start" style="white-space: pre;" direction="ltr" dominant-baseline="alphabetic">Invalid / wrong-owner data</text></g><g transform="translate(970 557) rotate(0 100.40625 8.050000000000011)"><text x="0" y="11.830273437499999" font-family="Helvetica, Segoe UI Emoji" font-size="14px" fill="#334155" text-anchor="start" style="white-space: pre;" direction="ltr" dominant-baseline="alphabetic">Separates unusable event input.</text></g><g transform="translate(970 581) rotate(0 78.7177734375 6.899999999999977)"><text x="0" y="10.140234374999999" font-family="Helvetica, Segoe UI Emoji" font-size="12px" fill="#475569" text-anchor="start" style="white-space: pre;" direction="ltr" dominant-baseline="alphabetic">RabbitMQ · quarantine queue</text></g><g transform="translate(970 609) rotate(0 97.65478515625 32.19999999999999)"><text x="0" y="11.830273437499999" font-family="Helvetica, Segoe UI Emoji" font-size="14px" fill="#334155" text-anchor="start" style="white-space: pre;" direction="ltr" dominant-baseline="alphabetic">Confirm quarantine copy</text><text x="0" y="27.9302734375" font-family="Helvetica, Segoe UI Emoji" font-size="14px" fill="#334155" text-anchor="start" style="white-space: pre;" direction="ltr" dominant-baseline="alphabetic">Then acknowledge source</text><text x="0" y="44.03027343749999" font-family="Helvetica, Segoe UI Emoji" font-size="14px" fill="#334155" text-anchor="start" style="white-space: pre;" direction="ltr" dominant-baseline="alphabetic">Failed copy leaves source work</text><text x="0" y="60.130273437499994" font-family="Helvetica, Segoe UI Emoji" font-size="14px" fill="#334155" text-anchor="start" style="white-space: pre;" direction="ltr" dominant-baseline="alphabetic">Diagnostic activity is bounded</text></g><g stroke-linecap="round" transform="translate(1412 514) rotate(0 185 90)"><path d="M32 0 C126.81 0, 221.62 0, 338 0 C359.33 0, 370 10.67, 370 32 C370 74.44, 370 116.88, 370 148 C370 169.33, 359.33 180, 338 180 C224.32 180, 110.64 180, 32 180 C10.67 180, 0 169.33, 0 148 C0 121.42, 0 94.84, 0 32 C0 10.67, 10.67 0, 32 0" stroke="none" stroke-width="0" fill="#fff7ed"/><path d="M32 0 C117.54 0, 203.08 0, 338 0 M32 0 C136.94 0, 241.88 0, 338 0 M338 0 C359.33 0, 370 10.67, 370 32 M338 0 C359.33 0, 370 10.67, 370 32 M370 32 C370 62.93, 370 93.87, 370 148 M370 32 C370 61.85, 370 91.71, 370 148 M370 148 C370 169.33, 359.33 180, 338 180 M370 148 C370 169.33, 359.33 180, 338 180 M338 180 C268.78 180, 199.56 180, 32 180 M338 180 C231.41 180, 124.81 180, 32 180 M32 180 C10.67 180, 0 169.33, 0 148 M32 180 C10.67 180, 0 169.33, 0 148 M0 148 C0 113.43, 0 78.87, 0 32 M0 148 C0 110.61, 0 73.23, 0 32 M0 32 C0 10.67, 10.67 0, 32 0 M0 32 C0 10.67, 10.67 0, 32 0" stroke="#475569" stroke-width="1.5" fill="none"/></g><g transform="translate(1430 526) rotate(0 141.8720703125 12.649999999999977)"><text x="0" y="18.5904296875" font-family="Helvetica, Segoe UI Emoji" font-size="22px" fill="#0f172a" text-anchor="start" style="white-space: pre;" direction="ltr" dominant-baseline="alphabetic">Consumer / database outage</text></g><g transform="translate(1430 557) rotate(0 103.099609375 8.050000000000011)"><text x="0" y="11.830273437499999" font-family="Helvetica, Segoe UI Emoji" font-size="14px" fill="#334155" text-anchor="start" style="white-space: pre;" direction="ltr" dominant-baseline="alphabetic">Retries delivery after interruption.</text></g><g transform="translate(1430 581) rotate(0 87.7177734375 6.899999999999977)"><text x="0" y="10.140234374999999" font-family="Helvetica, Segoe UI Emoji" font-size="12px" fill="#475569" text-anchor="start" style="white-space: pre;" direction="ltr" dominant-baseline="alphabetic">pg · amqplib · transactional inbox</text></g><g transform="translate(1430 609) rotate(0 109.98681640625 32.19999999999999)"><text x="0" y="11.830273437499999" font-family="Helvetica, Segoe UI Emoji" font-size="14px" fill="#334155" text-anchor="start" style="white-space: pre;" direction="ltr" dominant-baseline="alphabetic">No ack before effect commit</text><text x="0" y="27.9302734375" font-family="Helvetica, Segoe UI Emoji" font-size="14px" fill="#334155" text-anchor="start" style="white-space: pre;" direction="ltr" dominant-baseline="alphabetic">Connection close permits retry</text><text x="0" y="44.03027343749999" font-family="Helvetica, Segoe UI Emoji" font-size="14px" fill="#334155" text-anchor="start" style="white-space: pre;" direction="ltr" dominant-baseline="alphabetic">Lost ack repeats a message</text><text x="0" y="60.130273437499994" font-family="Helvetica, Segoe UI Emoji" font-size="14px" fill="#334155" text-anchor="start" style="white-space: pre;" direction="ltr" dominant-baseline="alphabetic">Inbox preserves exactly-once effect</text></g><g stroke-linecap="round"><g transform="translate(182 344.5) rotate(0 0 84.5)"><path d="M0 0 C0 48.52, 0 97.04, 0 169 M0 0 C0 37.52, 0 75.04, 0 169" stroke="#ea580c" stroke-width="2" fill="none"/></g><g transform="translate(182 344.5) rotate(0 0 84.5)"><path d="M-8.55 145.51 C-6.1 152.25, -3.64 159, 0 169 M-8.55 145.51 C-6.65 150.72, -4.75 155.94, 0 169" stroke="#ea580c" stroke-width="2" fill="none"/></g><g transform="translate(182 344.5) rotate(0 0 84.5)"><path d="M8.55 145.51 C6.1 152.25, 3.64 159, 0 169 M8.55 145.51 C6.65 150.72, 4.75 155.94, 0 169" stroke="#ea580c" stroke-width="2" fill="none"/></g></g><mask/><g stroke-linecap="round"><g transform="translate(642 344.5) rotate(0 0 84.5)"><path d="M0 0 C0 60.39, 0 120.77, 0 169 M0 0 C0 61.96, 0 123.92, 0 169" stroke="#ea580c" stroke-width="2" fill="none"/></g><g transform="translate(642 344.5) rotate(0 0 84.5)"><path d="M-8.55 145.51 C-5.5 153.9, -2.44 162.3, 0 169 M-8.55 145.51 C-5.42 154.12, -2.28 162.73, 0 169" stroke="#ea580c" stroke-width="2" fill="none"/></g><g transform="translate(642 344.5) rotate(0 0 84.5)"><path d="M8.55 145.51 C5.5 153.9, 2.44 162.3, 0 169 M8.55 145.51 C5.42 154.12, 2.28 162.73, 0 169" stroke="#ea580c" stroke-width="2" fill="none"/></g></g><mask/><g stroke-linecap="round"><g transform="translate(1102 344.5) rotate(0 0 84.5)"><path d="M0 0 C0 57.96, 0 115.91, 0 169 M0 0 C0 57.61, 0 115.23, 0 169" stroke="#ea580c" stroke-width="2" fill="none"/></g><g transform="translate(1102 344.5) rotate(0 0 84.5)"><path d="M-8.55 145.51 C-5.62 153.56, -2.69 161.62, 0 169 M-8.55 145.51 C-5.64 153.52, -2.72 161.53, 0 169" stroke="#ea580c" stroke-width="2" fill="none"/></g><g transform="translate(1102 344.5) rotate(0 0 84.5)"><path d="M8.55 145.51 C5.62 153.56, 2.69 161.62, 0 169 M8.55 145.51 C5.64 153.52, 2.72 161.53, 0 169" stroke="#ea580c" stroke-width="2" fill="none"/></g></g><mask/><g stroke-linecap="round"><g transform="translate(1562 344.5) rotate(0 0 84.5)"><path d="M0 0 C0 46.13, 0 92.26, 0 169 M0 0 C0 61.12, 0 122.25, 0 169" stroke="#ea580c" stroke-width="2" fill="none"/></g><g transform="translate(1562 344.5) rotate(0 0 84.5)"><path d="M-8.55 145.51 C-6.22 151.92, -3.88 158.33, 0 169 M-8.55 145.51 C-5.46 154, -2.37 162.5, 0 169" stroke="#ea580c" stroke-width="2" fill="none"/></g><g transform="translate(1562 344.5) rotate(0 0 84.5)"><path d="M8.55 145.51 C6.22 151.92, 3.88 158.33, 0 169 M8.55 145.51 C5.46 154, 2.37 162.5, 0 169" stroke="#ea580c" stroke-width="2" fill="none"/></g></g><mask/><g transform="translate(32 764) rotate(0 327.4453125 20.69999999999999)"><text x="0" y="15.2103515625" font-family="Helvetica, Segoe UI Emoji" font-size="18px" fill="#334155" text-anchor="start" style="white-space: pre;" direction="ltr" dominant-baseline="alphabetic">Envelope: id, type, schemaVersion=1, occurredAt, correlationId, causationId, data.</text><text x="0" y="35.9103515625" font-family="Helvetica, Segoe UI Emoji" font-size="18px" fill="#334155" text-anchor="start" style="white-space: pre;" direction="ltr" dominant-baseline="alphabetic">Business payload: orderId; outcome adds fulfillmentId and failureCode for failure.</text></g></svg>
