<svg version="1.1" xmlns="http://www.w3.org/2000/svg" viewBox="0 0 1677.1181640625 827.4" width="3354.236328125" height="1654.8" role="img"><title>Catalog cache</title><!-- svg-source:excalidraw --><metadata/><defs><style class="style-fonts">
      </style></defs><rect x="0" y="0" width="1677.1181640625" height="827.4" fill="#ffffff"/><g transform="translate(32 32) rotate(0 319.4306640625 19.549999999999997)"><text x="0" y="28.730664062499997" font-family="Helvetica, Segoe UI Emoji" font-size="34px" fill="#0f172a" text-anchor="start" style="white-space: pre;" direction="ltr" dominant-baseline="alphabetic">05 / Catalog cache and authoritative reads</text></g><g transform="translate(32 86) rotate(0 344.478515625 10.350000000000001)"><text x="0" y="15.2103515625" font-family="Helvetica, Segoe UI Emoji" font-size="18px" fill="#334155" text-anchor="start" style="white-space: pre;" direction="ltr" dominant-baseline="alphabetic">Revisioned cache-aside • Redis is disposable • checkout and preview always bypass it</text></g><g stroke-linecap="round" transform="translate(32 164) rotate(0 150 85)"><path d="M32 0 C104.9 0, 177.8 0, 268 0 C289.33 0, 300 10.67, 300 32 C300 68.54, 300 105.08, 300 138 C300 159.33, 289.33 170, 268 170 C205.95 170, 143.91 170, 32 170 C10.67 170, 0 159.33, 0 138 C0 110.31, 0 82.63, 0 32 C0 10.67, 10.67 0, 32 0" stroke="none" stroke-width="0" fill="#eff6ff"/><path d="M32 0 C123.72 0, 215.44 0, 268 0 M32 0 C91.47 0, 150.94 0, 268 0 M268 0 C289.33 0, 300 10.67, 300 32 M268 0 C289.33 0, 300 10.67, 300 32 M300 32 C300 55.35, 300 78.7, 300 138 M300 32 C300 57.36, 300 82.71, 300 138 M300 138 C300 159.33, 289.33 170, 268 170 M300 138 C300 159.33, 289.33 170, 268 170 M268 170 C191.31 170, 114.62 170, 32 170 M268 170 C218.7 170, 169.39 170, 32 170 M32 170 C10.67 170, 0 159.33, 0 138 M32 170 C10.67 170, 0 159.33, 0 138 M0 138 C0 96.4, 0 54.8, 0 32 M0 138 C0 108.67, 0 79.34, 0 32 M0 32 C0 10.67, 10.67 0, 32 0 M0 32 C0 10.67, 10.67 0, 32 0" stroke="#475569" stroke-width="1.5" fill="none"/></g><g transform="translate(50 176) rotate(0 104.5537109375 12.650000000000006)"><text x="0" y="18.5904296875" font-family="Helvetica, Segoe UI Emoji" font-size="22px" fill="#0f172a" text-anchor="start" style="white-space: pre;" direction="ltr" dominant-baseline="alphabetic">1. Read SQL revision</text></g><g transform="translate(50 207) rotate(0 119.833984375 8.049999999999997)"><text x="0" y="11.830273437499999" font-family="Helvetica, Segoe UI Emoji" font-size="14px" fill="#334155" text-anchor="start" style="white-space: pre;" direction="ltr" dominant-baseline="alphabetic">Selects the committed catalog version.</text></g><g transform="translate(50 231) rotate(0 72.703125 6.900000000000006)"><text x="0" y="10.140234374999999" font-family="Helvetica, Segoe UI Emoji" font-size="12px" fill="#475569" text-anchor="start" style="white-space: pre;" direction="ltr" dominant-baseline="alphabetic">Ordering · pg · PostgreSQL</text></g><g transform="translate(50 265) rotate(0 90.658203125 24.150000000000006)"><text x="0" y="11.830273437499999" font-family="Helvetica, Segoe UI Emoji" font-size="14px" fill="#334155" text-anchor="start" style="white-space: pre;" direction="ltr" dominant-baseline="alphabetic">Catalog statement trigger</text><text x="0" y="27.9302734375" font-family="Helvetica, Segoe UI Emoji" font-size="14px" fill="#334155" text-anchor="start" style="white-space: pre;" direction="ltr" dominant-baseline="alphabetic">Revision commits with writes</text><text x="0" y="44.03027343749999" font-family="Helvetica, Segoe UI Emoji" font-size="14px" fill="#334155" text-anchor="start" style="white-space: pre;" direction="ltr" dominant-baseline="alphabetic">SQL outage remains an error</text></g><g stroke-linecap="round" transform="translate(492 164) rotate(0 150 85)"><path d="M32 0 C103.97 0, 175.95 0, 268 0 C289.33 0, 300 10.67, 300 32 C300 54.2, 300 76.41, 300 138 C300 159.33, 289.33 170, 268 170 C187.04 170, 106.08 170, 32 170 C10.67 170, 0 159.33, 0 138 C0 98.27, 0 58.55, 0 32 C0 10.67, 10.67 0, 32 0" stroke="none" stroke-width="0" fill="#eff6ff"/><path d="M32 0 C112.39 0, 192.78 0, 268 0 M32 0 C83.36 0, 134.72 0, 268 0 M268 0 C289.33 0, 300 10.67, 300 32 M268 0 C289.33 0, 300 10.67, 300 32 M300 32 C300 65.24, 300 98.48, 300 138 M300 32 C300 70.78, 300 109.56, 300 138 M300 138 C300 159.33, 289.33 170, 268 170 M300 138 C300 159.33, 289.33 170, 268 170 M268 170 C213.74 170, 159.48 170, 32 170 M268 170 C213.92 170, 159.85 170, 32 170 M32 170 C10.67 170, 0 159.33, 0 138 M32 170 C10.67 170, 0 159.33, 0 138 M0 138 C0 107.82, 0 77.63, 0 32 M0 138 C0 114.23, 0 90.47, 0 32 M0 32 C0 10.67, 10.67 0, 32 0 M0 32 C0 10.67, 10.67 0, 32 0" stroke="#475569" stroke-width="1.5" fill="none"/></g><g transform="translate(510 176) rotate(0 108.21142578125 12.650000000000006)"><text x="0" y="18.5904296875" font-family="Helvetica, Segoe UI Emoji" font-size="22px" fill="#0f172a" text-anchor="start" style="white-space: pre;" direction="ltr" dominant-baseline="alphabetic">2. GET revisioned key</text></g><g transform="translate(510 207) rotate(0 107.40625 8.049999999999997)"><text x="0" y="11.830273437499999" font-family="Helvetica, Segoe UI Emoji" font-size="14px" fill="#334155" text-anchor="start" style="white-space: pre;" direction="ltr" dominant-baseline="alphabetic">Reads a cached catalog snapshot.</text></g><g transform="translate(510 231) rotate(0 60.1142578125 6.900000000000006)"><text x="0" y="10.140234374999999" font-family="Helvetica, Segoe UI Emoji" font-size="12px" fill="#475569" text-anchor="start" style="white-space: pre;" direction="ltr" dominant-baseline="alphabetic">@redis/client · Redis 8</text></g><g transform="translate(510 265) rotate(0 78.0869140625 24.150000000000006)"><text x="0" y="11.830273437499999" font-family="Helvetica, Segoe UI Emoji" font-size="14px" fill="#334155" text-anchor="start" style="white-space: pre;" direction="ltr" dominant-baseline="alphabetic">lab:catalog:v{revision}</text><text x="0" y="27.9302734375" font-family="Helvetica, Segoe UI Emoji" font-size="14px" fill="#334155" text-anchor="start" style="white-space: pre;" direction="ltr" dominant-baseline="alphabetic">Validate parsed Product[]</text><text x="0" y="44.03027343749999" font-family="Helvetica, Segoe UI Emoji" font-size="14px" fill="#334155" text-anchor="start" style="white-space: pre;" direction="ltr" dominant-baseline="alphabetic">Hit returns cached JSON</text></g><g stroke-linecap="round" transform="translate(952 164) rotate(0 150 85)"><path d="M32 0 C85.14 0, 138.28 0, 268 0 C289.33 0, 300 10.67, 300 32 C300 56.42, 300 80.84, 300 138 C300 159.33, 289.33 170, 268 170 C198.06 170, 128.13 170, 32 170 C10.67 170, 0 159.33, 0 138 C0 98.89, 0 59.78, 0 32 C0 10.67, 10.67 0, 32 0" stroke="none" stroke-width="0" fill="#eff6ff"/><path d="M32 0 C94.35 0, 156.69 0, 268 0 M32 0 C110.59 0, 189.18 0, 268 0 M268 0 C289.33 0, 300 10.67, 300 32 M268 0 C289.33 0, 300 10.67, 300 32 M300 32 C300 60.93, 300 89.87, 300 138 M300 32 C300 71.66, 300 111.32, 300 138 M300 138 C300 159.33, 289.33 170, 268 170 M300 138 C300 159.33, 289.33 170, 268 170 M268 170 C215.3 170, 162.6 170, 32 170 M268 170 C181.59 170, 95.18 170, 32 170 M32 170 C10.67 170, 0 159.33, 0 138 M32 170 C10.67 170, 0 159.33, 0 138 M0 138 C0 97, 0 56, 0 32 M0 138 C0 97.37, 0 56.73, 0 32 M0 32 C0 10.67, 10.67 0, 32 0 M0 32 C0 10.67, 10.67 0, 32 0" stroke="#475569" stroke-width="1.5" fill="none"/></g><g transform="translate(970 176) rotate(0 118.0029296875 12.650000000000006)"><text x="0" y="18.5904296875" font-family="Helvetica, Segoe UI Emoji" font-size="22px" fill="#0f172a" text-anchor="start" style="white-space: pre;" direction="ltr" dominant-baseline="alphabetic">3. Miss / invalid / outage</text></g><g transform="translate(970 207) rotate(0 101.18212890625 8.049999999999997)"><text x="0" y="11.830273437499999" font-family="Helvetica, Segoe UI Emoji" font-size="14px" fill="#334155" text-anchor="start" style="white-space: pre;" direction="ltr" dominant-baseline="alphabetic">Loads authoritative catalog data.</text></g><g transform="translate(970 231) rotate(0 84.12890625 6.900000000000006)"><text x="0" y="10.140234374999999" font-family="Helvetica, Segoe UI Emoji" font-size="12px" fill="#475569" text-anchor="start" style="white-space: pre;" direction="ltr" dominant-baseline="alphabetic">pg · PostgreSQL · @redis/client</text></g><g transform="translate(970 259) rotate(0 101.96142578125 32.19999999999999)"><text x="0" y="11.830273437499999" font-family="Helvetica, Segoe UI Emoji" font-size="14px" fill="#334155" text-anchor="start" style="white-space: pre;" direction="ltr" dominant-baseline="alphabetic">SQL catalog remains authority</text><text x="0" y="27.9302734375" font-family="Helvetica, Segoe UI Emoji" font-size="14px" fill="#334155" text-anchor="start" style="white-space: pre;" direction="ltr" dominant-baseline="alphabetic">Remove invalid JSON</text><text x="0" y="44.03027343749999" font-family="Helvetica, Segoe UI Emoji" font-size="14px" fill="#334155" text-anchor="start" style="white-space: pre;" direction="ltr" dominant-baseline="alphabetic">Cache outage: database fallback</text><text x="0" y="60.130273437499994" font-family="Helvetica, Segoe UI Emoji" font-size="14px" fill="#334155" text-anchor="start" style="white-space: pre;" direction="ltr" dominant-baseline="alphabetic">Same-process fills coalesce</text></g><g stroke-linecap="round"><g transform="translate(332.5 249) rotate(0 79.5 0)"><path d="M0 0 C53.39 0, 106.78 0, 159 0 M0 0 C35.02 0, 70.05 0, 159 0" stroke="#2563eb" stroke-width="2" fill="none"/></g><g transform="translate(332.5 249) rotate(0 79.5 0)"><path d="M135.51 8.55 C143.4 5.68, 151.28 2.81, 159 0 M135.51 8.55 C140.68 6.67, 145.86 4.78, 159 0" stroke="#2563eb" stroke-width="2" fill="none"/></g><g transform="translate(332.5 249) rotate(0 79.5 0)"><path d="M135.51 -8.55 C143.4 -5.68, 151.28 -2.81, 159 0 M135.51 -8.55 C140.68 -6.67, 145.86 -4.78, 159 0" stroke="#2563eb" stroke-width="2" fill="none"/></g></g><mask/><g transform="translate(342 212) rotate(0 52.24609375 9.200000000000003)"><text x="0" y="13.5203125" font-family="Helvetica, Segoe UI Emoji" font-size="16px" fill="#2563eb" text-anchor="start" style="white-space: pre;" direction="ltr" dominant-baseline="alphabetic">Revision + key</text></g><g stroke-linecap="round"><g transform="translate(792.5 249) rotate(0 79.5 0)"><path d="M0 0 C52.95 0, 105.9 0, 159 0 M0 0 C60.74 0, 121.49 0, 159 0" stroke="#2563eb" stroke-width="2" fill="none"/></g><g transform="translate(792.5 249) rotate(0 79.5 0)"><path d="M135.51 8.55 C143.33 5.7, 151.15 2.86, 159 0 M135.51 8.55 C144.48 5.28, 153.46 2.02, 159 0" stroke="#2563eb" stroke-width="2" fill="none"/></g><g transform="translate(792.5 249) rotate(0 79.5 0)"><path d="M135.51 -8.55 C143.33 -5.7, 151.15 -2.86, 159 0 M135.51 -8.55 C144.48 -5.28, 153.46 -2.02, 159 0" stroke="#2563eb" stroke-width="2" fill="none"/></g></g><mask/><g transform="translate(811 212) rotate(0 39.57421875 9.200000000000003)"><text x="0" y="13.5203125" font-family="Helvetica, Segoe UI Emoji" font-size="16px" fill="#2563eb" text-anchor="start" style="white-space: pre;" direction="ltr" dominant-baseline="alphabetic">No valid hit</text></g><g stroke-linecap="round" transform="translate(32 484) rotate(0 170 95)"><path d="M32 0 C137.87 0, 243.75 0, 308 0 C329.33 0, 340 10.67, 340 32 C340 80.92, 340 129.85, 340 158 C340 179.33, 329.33 190, 308 190 C236.76 190, 165.52 190, 32 190 C10.67 190, 0 179.33, 0 158 C0 123.46, 0 88.91, 0 32 C0 10.67, 10.67 0, 32 0" stroke="none" stroke-width="0" fill="#eff6ff"/><path d="M32 0 C113.36 0, 194.73 0, 308 0 M32 0 C105.69 0, 179.39 0, 308 0 M308 0 C329.33 0, 340 10.67, 340 32 M308 0 C329.33 0, 340 10.67, 340 32 M340 32 C340 72.04, 340 112.08, 340 158 M340 32 C340 65.28, 340 98.55, 340 158 M340 158 C340 179.33, 329.33 190, 308 190 M340 158 C340 179.33, 329.33 190, 308 190 M308 190 C247.68 190, 187.36 190, 32 190 M308 190 C216.75 190, 125.5 190, 32 190 M32 190 C10.67 190, 0 179.33, 0 158 M32 190 C10.67 190, 0 179.33, 0 158 M0 158 C0 125.93, 0 93.86, 0 32 M0 158 C0 123.46, 0 88.92, 0 32 M0 32 C0 10.67, 10.67 0, 32 0 M0 32 C0 10.67, 10.67 0, 32 0" stroke="#475569" stroke-width="1.5" fill="none"/></g><g transform="translate(50 496) rotate(0 79.48681640625 12.649999999999977)"><text x="0" y="18.5904296875" font-family="Helvetica, Segoe UI Emoji" font-size="22px" fill="#0f172a" text-anchor="start" style="white-space: pre;" direction="ltr" dominant-baseline="alphabetic">6. Late fill safety</text></g><g transform="translate(50 527) rotate(0 103.88916015625 8.050000000000011)"><text x="0" y="11.830273437499999" font-family="Helvetica, Segoe UI Emoji" font-size="14px" fill="#334155" text-anchor="start" style="white-space: pre;" direction="ltr" dominant-baseline="alphabetic">Keeps a late fill on its old version.</text></g><g transform="translate(50 551) rotate(0 89.0390625 6.899999999999977)"><text x="0" y="10.140234374999999" font-family="Helvetica, Segoe UI Emoji" font-size="12px" fill="#475569" text-anchor="start" style="white-space: pre;" direction="ltr" dominant-baseline="alphabetic">TypeScript · revision-keyed Redis</text></g><g transform="translate(50 579) rotate(0 90.6513671875 32.19999999999999)"><text x="0" y="11.830273437499999" font-family="Helvetica, Segoe UI Emoji" font-size="14px" fill="#334155" text-anchor="start" style="white-space: pre;" direction="ltr" dominant-baseline="alphabetic">Old request may finish late</text><text x="0" y="27.9302734375" font-family="Helvetica, Segoe UI Emoji" font-size="14px" fill="#334155" text-anchor="start" style="white-space: pre;" direction="ltr" dominant-baseline="alphabetic">Only writes its old revision</text><text x="0" y="44.03027343749999" font-family="Helvetica, Segoe UI Emoji" font-size="14px" fill="#334155" text-anchor="start" style="white-space: pre;" direction="ltr" dominant-baseline="alphabetic">New requests select new key</text><text x="0" y="60.130273437499994" font-family="Helvetica, Segoe UI Emoji" font-size="14px" fill="#334155" text-anchor="start" style="white-space: pre;" direction="ltr" dominant-baseline="alphabetic">No distributed stampede lock</text></g><g stroke-linecap="round" transform="translate(492 484) rotate(0 170 95)"><path d="M32 0 C89.18 0, 146.36 0, 308 0 C329.33 0, 340 10.67, 340 32 C340 78.86, 340 125.72, 340 158 C340 179.33, 329.33 190, 308 190 C220.42 190, 132.83 190, 32 190 C10.67 190, 0 179.33, 0 158 C0 125.16, 0 92.32, 0 32 C0 10.67, 10.67 0, 32 0" stroke="none" stroke-width="0" fill="#ecfdf5"/><path d="M32 0 C137.44 0, 242.88 0, 308 0 M32 0 C141.86 0, 251.71 0, 308 0 M308 0 C329.33 0, 340 10.67, 340 32 M308 0 C329.33 0, 340 10.67, 340 32 M340 32 C340 78.59, 340 125.17, 340 158 M340 32 C340 61.81, 340 91.63, 340 158 M340 158 C340 179.33, 329.33 190, 308 190 M340 158 C340 179.33, 329.33 190, 308 190 M308 190 C228.75 190, 149.5 190, 32 190 M308 190 C221.56 190, 135.13 190, 32 190 M32 190 C10.67 190, 0 179.33, 0 158 M32 190 C10.67 190, 0 179.33, 0 158 M0 158 C0 119.83, 0 81.66, 0 32 M0 158 C0 132.57, 0 107.14, 0 32 M0 32 C0 10.67, 10.67 0, 32 0 M0 32 C0 10.67, 10.67 0, 32 0" stroke="#475569" stroke-width="1.5" fill="none"/></g><g transform="translate(510 496) rotate(0 127.57958984375 12.649999999999977)"><text x="0" y="18.5904296875" font-family="Helvetica, Segoe UI Emoji" font-size="22px" fill="#0f172a" text-anchor="start" style="white-space: pre;" direction="ltr" dominant-baseline="alphabetic">5. Writes invalidate by key</text></g><g transform="translate(510 527) rotate(0 123.34423828125 8.050000000000011)"><text x="0" y="11.830273437499999" font-family="Helvetica, Segoe UI Emoji" font-size="14px" fill="#334155" text-anchor="start" style="white-space: pre;" direction="ltr" dominant-baseline="alphabetic">Advances the catalog version on writes.</text></g><g transform="translate(510 551) rotate(0 82.705078125 6.899999999999977)"><text x="0" y="10.140234374999999" font-family="Helvetica, Segoe UI Emoji" font-size="12px" fill="#475569" text-anchor="start" style="white-space: pre;" direction="ltr" dominant-baseline="alphabetic">PostgreSQL · statement trigger</text></g><g transform="translate(510 579) rotate(0 103.49609375 32.19999999999999)"><text x="0" y="11.830273437499999" font-family="Helvetica, Segoe UI Emoji" font-size="14px" fill="#334155" text-anchor="start" style="white-space: pre;" direction="ltr" dominant-baseline="alphabetic">Product create/update/deactivate</text><text x="0" y="27.9302734375" font-family="Helvetica, Segoe UI Emoji" font-size="14px" fill="#334155" text-anchor="start" style="white-space: pre;" direction="ltr" dominant-baseline="alphabetic">Stock reservation / compensation</text><text x="0" y="44.03027343749999" font-family="Helvetica, Segoe UI Emoji" font-size="14px" fill="#334155" text-anchor="start" style="white-space: pre;" direction="ltr" dominant-baseline="alphabetic">Advance revision in SQL commit</text><text x="0" y="60.130273437499994" font-family="Helvetica, Segoe UI Emoji" font-size="14px" fill="#334155" text-anchor="start" style="white-space: pre;" direction="ltr" dominant-baseline="alphabetic">Old keys expire or are evicted</text></g><g stroke-linecap="round" transform="translate(952 484) rotate(0 170 95)"><path d="M32 0 C94.93 0, 157.86 0, 308 0 C329.33 0, 340 10.67, 340 32 C340 67.84, 340 103.68, 340 158 C340 179.33, 329.33 190, 308 190 C202.27 190, 96.54 190, 32 190 C10.67 190, 0 179.33, 0 158 C0 120.17, 0 82.34, 0 32 C0 10.67, 10.67 0, 32 0" stroke="none" stroke-width="0" fill="#ecfdf5"/><path d="M32 0 C98.02 0, 164.04 0, 308 0 M32 0 C89.53 0, 147.06 0, 308 0 M308 0 C329.33 0, 340 10.67, 340 32 M308 0 C329.33 0, 340 10.67, 340 32 M340 32 C340 58.32, 340 84.65, 340 158 M340 32 C340 62.4, 340 92.81, 340 158 M340 158 C340 179.33, 329.33 190, 308 190 M340 158 C340 179.33, 329.33 190, 308 190 M308 190 C231.63 190, 155.26 190, 32 190 M308 190 C241.44 190, 174.87 190, 32 190 M32 190 C10.67 190, 0 179.33, 0 158 M32 190 C10.67 190, 0 179.33, 0 158 M0 158 C0 111.22, 0 64.45, 0 32 M0 158 C0 113.43, 0 68.86, 0 32 M0 32 C0 10.67, 10.67 0, 32 0 M0 32 C0 10.67, 10.67 0, 32 0" stroke="#475569" stroke-width="1.5" fill="none"/></g><g transform="translate(970 496) rotate(0 121.0322265625 12.649999999999977)"><text x="0" y="18.5904296875" font-family="Helvetica, Segoe UI Emoji" font-size="22px" fill="#0f172a" text-anchor="start" style="white-space: pre;" direction="ltr" dominant-baseline="alphabetic">4. SET JSON with expiry</text></g><g transform="translate(970 527) rotate(0 102.33740234375 8.050000000000011)"><text x="0" y="11.830273437499999" font-family="Helvetica, Segoe UI Emoji" font-size="14px" fill="#334155" text-anchor="start" style="white-space: pre;" direction="ltr" dominant-baseline="alphabetic">Caches the validated read result.</text></g><g transform="translate(970 551) rotate(0 98.455078125 6.899999999999977)"><text x="0" y="10.140234374999999" font-family="Helvetica, Segoe UI Emoji" font-size="12px" fill="#475569" text-anchor="start" style="white-space: pre;" direction="ltr" dominant-baseline="alphabetic">@redis/client · Redis SET with expiry</text></g><g transform="translate(970 579) rotate(0 88.6962890625 32.19999999999999)"><text x="0" y="11.830273437499999" font-family="Helvetica, Segoe UI Emoji" font-size="14px" fill="#334155" text-anchor="start" style="white-space: pre;" direction="ltr" dominant-baseline="alphabetic">Fifteen-second TTL</text><text x="0" y="27.9302734375" font-family="Helvetica, Segoe UI Emoji" font-size="14px" fill="#334155" text-anchor="start" style="white-space: pre;" direction="ltr" dominant-baseline="alphabetic">Fill failure returns SQL result</text><text x="0" y="44.03027343749999" font-family="Helvetica, Segoe UI Emoji" font-size="14px" fill="#334155" text-anchor="start" style="white-space: pre;" direction="ltr" dominant-baseline="alphabetic">600 ms command deadline</text><text x="0" y="60.130273437499994" font-family="Helvetica, Segoe UI Emoji" font-size="14px" fill="#334155" text-anchor="start" style="white-space: pre;" direction="ltr" dominant-baseline="alphabetic">Offline queuing is disabled</text></g><g stroke-linecap="round"><g transform="translate(1102 334.5) rotate(0 0 74.5)"><path d="M0 0 C0 54.51, 0 109.03, 0 149 M0 0 C0 47.35, 0 94.69, 0 149" stroke="#059669" stroke-width="2" fill="none"/></g><g transform="translate(1102 334.5) rotate(0 0 74.5)"><path d="M-8.55 125.51 C-5.42 134.1, -2.29 142.7, 0 149 M-8.55 125.51 C-5.83 132.97, -3.12 140.44, 0 149" stroke="#059669" stroke-width="2" fill="none"/></g><g transform="translate(1102 334.5) rotate(0 0 74.5)"><path d="M8.55 125.51 C5.42 134.1, 2.29 142.7, 0 149 M8.55 125.51 C5.83 132.97, 3.12 140.44, 0 149" stroke="#059669" stroke-width="2" fill="none"/></g></g><mask/><g transform="translate(1122 384) rotate(0 60.7890625 9.199999999999989)"><text x="0" y="13.5203125" font-family="Helvetica, Segoe UI Emoji" font-size="16px" fill="#059669" text-anchor="start" style="white-space: pre;" direction="ltr" dominant-baseline="alphabetic">Validated catalog</text></g><g stroke-linecap="round"><g transform="translate(951.5 574) rotate(0 -59.5 0)"><path d="M0 0 C-24.8 0, -49.61 0, -119 0 M0 0 C-29.37 0, -58.74 0, -119 0" stroke="#059669" stroke-width="2" fill="none"/></g><g transform="translate(951.5 574) rotate(0 -59.5 0)"><path d="M-95.51 -8.55 C-100.4 -6.77, -105.3 -4.99, -119 0 M-95.51 -8.55 C-101.31 -6.44, -107.1 -4.33, -119 0" stroke="#059669" stroke-width="2" fill="none"/></g><g transform="translate(951.5 574) rotate(0 -59.5 0)"><path d="M-95.51 8.55 C-100.4 6.77, -105.3 4.99, -119 0 M-95.51 8.55 C-101.31 6.44, -107.1 4.33, -119 0" stroke="#059669" stroke-width="2" fill="none"/></g></g><mask/><g transform="translate(842 538) rotate(0 45.35546875 9.199999999999989)"><text x="0" y="13.5203125" font-family="Helvetica, Segoe UI Emoji" font-size="16px" fill="#059669" text-anchor="start" style="white-space: pre;" direction="ltr" dominant-baseline="alphabetic">Future reads</text></g><g stroke-linecap="round"><g transform="translate(491.5 574) rotate(0 -59.5 0)"><path d="M0 0 C-44.38 0, -88.77 0, -119 0 M0 0 C-44.21 0, -88.42 0, -119 0" stroke="#059669" stroke-width="2" fill="none"/></g><g transform="translate(491.5 574) rotate(0 -59.5 0)"><path d="M-95.51 -8.55 C-104.27 -5.36, -113.03 -2.17, -119 0 M-95.51 -8.55 C-104.24 -5.37, -112.96 -2.2, -119 0" stroke="#059669" stroke-width="2" fill="none"/></g><g transform="translate(491.5 574) rotate(0 -59.5 0)"><path d="M-95.51 8.55 C-104.27 5.36, -113.03 2.17, -119 0 M-95.51 8.55 C-104.24 5.37, -112.96 2.2, -119 0" stroke="#059669" stroke-width="2" fill="none"/></g></g><mask/><g transform="translate(381 538) rotate(0 45.79296875 9.199999999999989)"><text x="0" y="13.5203125" font-family="Helvetica, Segoe UI Emoji" font-size="16px" fill="#059669" text-anchor="start" style="white-space: pre;" direction="ltr" dominant-baseline="alphabetic">New revision</text></g><g transform="translate(1392 494) rotate(0 126.55908203125 12.649999999999977)"><text x="0" y="18.5904296875" font-family="Helvetica, Segoe UI Emoji" font-size="22px" fill="#0f172a" text-anchor="start" style="white-space: pre;" direction="ltr" dominant-baseline="alphabetic">Memory and observations</text></g><g transform="translate(1392 542) rotate(0 116.033203125 51.75)"><text x="0" y="15.2103515625" font-family="Helvetica, Segoe UI Emoji" font-size="18px" fill="#334155" text-anchor="start" style="white-space: pre;" direction="ltr" dominant-baseline="alphabetic">Dataset maxmemory: 96 MiB</text><text x="0" y="35.9103515625" font-family="Helvetica, Segoe UI Emoji" font-size="18px" fill="#334155" text-anchor="start" style="white-space: pre;" direction="ltr" dominant-baseline="alphabetic">Container cap: 128 MiB</text><text x="0" y="56.6103515625" font-family="Helvetica, Segoe UI Emoji" font-size="18px" fill="#334155" text-anchor="start" style="white-space: pre;" direction="ltr" dominant-baseline="alphabetic">Policy: allkeys-LRU</text><text x="0" y="77.31035156249999" font-family="Helvetica, Segoe UI Emoji" font-size="18px" fill="#334155" text-anchor="start" style="white-space: pre;" direction="ltr" dominant-baseline="alphabetic">No disk persistence</text><text x="0" y="98.01035156249999" font-family="Helvetica, Segoe UI Emoji" font-size="18px" fill="#334155" text-anchor="start" style="white-space: pre;" direction="ltr" dominant-baseline="alphabetic">Track hit / miss / fallback / fill</text></g><g transform="translate(32 754) rotate(0 386.5341796875 20.69999999999999)"><text x="0" y="15.2103515625" font-family="Helvetica, Segoe UI Emoji" font-size="18px" fill="#334155" text-anchor="start" style="white-space: pre;" direction="ltr" dominant-baseline="alphabetic">Expiry, eviction, corruption and outage all differ, but none permits a cache-only checkout.</text><text x="0" y="35.9103515625" font-family="Helvetica, Segoe UI Emoji" font-size="18px" fill="#334155" text-anchor="start" style="white-space: pre;" direction="ltr" dominant-baseline="alphabetic">GET retry is bounded to one transient retry. Missing observations cannot establish current health.</text></g></svg>
